<?xml version="1.0" encoding="UTF-8" standalone="no"?>
<svg
   width="38"
   height="38"
   viewBox="0 0 38 38"
   fill="none"
   version="1.1"
   id="svg4"
   sodipodi:docname="user.svg"
   inkscape:version="1.2.1 (9c6d41e410, 2022-07-14)"
   xmlns:inkscape="http://www.inkscape.org/namespaces/inkscape"
   xmlns:sodipodi="http://sodipodi.sourceforge.net/DTD/sodipodi-0.dtd"
   xmlns="http://www.w3.org/2000/svg"
   xmlns:svg="http://www.w3.org/2000/svg">
  <defs
     id="defs8" />
  <sodipodi:namedview
     id="namedview6"
     pagecolor="#ffffff"
     bordercolor="#999999"
     borderopacity="1"
     inkscape:showpageshadow="0"
     inkscape:pageopacity="0"
     inkscape:pagecheckerboard="0"
     inkscape:deskcolor="#d1d1d1"
     showgrid="false"
     showguides="true"
     inkscape:zoom="29.342857"
     inkscape:cx="14.023856"
     inkscape:cy="23.225414"
     inkscape:window-width="3440"
     inkscape:window-height="1375"
     inkscape:window-x="0"
     inkscape:window-y="0"
     inkscape:window-maximized="1"
     inkscape:current-layer="svg4">
    <sodipodi:guide
       position="19,19"
       orientation="-1,0"
       id="guide2297"
       inkscape:locked="false"
       inkscape:label=""
       inkscape:color="rgb(0,134,229)" />
    <sodipodi:guide
       position="19,0"
       orientation="0,1"
       id="guide3025"
       inkscape:locked="false"
       inkscape:label=""
       inkscape:color="rgb(0,134,229)" />
  </sodipodi:namedview>
  <path
     d="m 22.939638,27.035774 c -0.1168,-1.2896 -0.072,-2.1896 -0.072,-3.368 0.584,-0.3064 1.6304,-2.26 1.8072,-3.9104 0.4592,-0.0376 1.1832,-0.4856 1.3952,-2.2544 0.1144,-0.9496 -0.34,-1.484 -0.6168,-1.652 0.7472,-2.24719 2.2992,-9.1991904 -2.8704,-9.9175904 -0.532,-0.9344 -1.8944,-1.407199 -3.6648,-1.407199 -7.08319,0.130399 -7.93759,5.348799 -6.38479,11.3247894 -0.276,0.168 -0.7304,0.7024 -0.6168,1.652 0.2128,1.7688 0.936,2.2168 1.3952,2.2544 0.176,1.6496 1.264,3.604 1.84959,3.9104 0,1.1784 0.044,2.0784 -0.0728,3.368 -1.00879,2.712 -11.424906,5.021263 -11.1657256,10.980635 9.8416586,0.139136 9.7649106,-0.01195 15.1089006,-0.01195 5.344,0 5.358374,-0.002 15.108783,-0.02345 -0.0152,-6.539019 -10.189558,-8.223636 -11.200758,-10.945236 z"
     fill="#000000"
     id="path2"
     sodipodi:nodetypes="cccccccccccccsccc" />
</svg>
